<?xml version="1.0"?>
<svg xmlns="http://www.w3.org/2000/svg" xmlns:xlink="http://www.w3.org/1999/xlink" version="1.1" id="Capa_1" x="0px" y="0px" viewBox="0 0 476.737 476.737" style="enable-background:new 0 0 476.737 476.737;" xml:space="preserve" width="512px" height="512px" class=""><g transform="matrix(0.9999 0 0 0.9999 0.0238368 0.0238368)"><g>
	<g>
		<g>
			<path d="M238.369,0C106.726,0,0,106.726,0,238.369c0,131.675,106.726,238.369,238.369,238.369     c131.675,0,238.369-106.694,238.369-238.369C476.737,106.726,370.043,0,238.369,0z M352.722,209.987L249.651,313.057     c-3.146,3.178-7.246,4.672-11.283,4.64c-4.1,0-8.168-1.526-11.283-4.64L124.015,209.987c-6.198-6.198-6.198-16.273,0-22.47     c6.198-6.198,16.273-6.198,22.47,0l91.883,91.883l91.883-91.883c6.198-6.198,16.273-6.198,22.47,0     C358.92,193.714,358.92,203.789,352.722,209.987z" data-original="#090509" class="active-path" data-old_color="#4B4848" fill="#484747"/>
		</g>
	</g>
</g></g> </svg>
